<svg width="12" height="12" viewBox="0 0 12 12" fill="none" xmlns="http://www.w3.org/2000/svg">
<path d="M6 1.125C5.03582 1.125 4.09329 1.41091 3.2916 1.94659C2.48991 2.48226 1.86507 3.24363 1.49609 4.13442C1.12711 5.02521 1.03057 6.00541 1.21867 6.95107C1.40678 7.89672 1.87108 8.76536 2.55286 9.44715C3.23464 10.1289 4.10328 10.5932 5.04894 10.7813C5.99459 10.9694 6.97479 10.8729 7.86558 10.5039C8.75637 10.1349 9.51775 9.51009 10.0534 8.7084C10.5891 7.90671 10.875 6.96418 10.875 6C10.8736 4.70749 10.3596 3.46831 9.44564 2.55436C8.5317 1.64042 7.29251 1.12636 6 1.125ZM6 10.125C5.18415 10.125 4.38663 9.88307 3.70827 9.42981C3.02992 8.97655 2.50121 8.33231 2.189 7.57857C1.87679 6.82482 1.7951 5.99542 1.95426 5.19525C2.11343 4.39508 2.5063 3.66008 3.08319 3.08318C3.66008 2.50629 4.39508 2.11342 5.19525 1.95426C5.99543 1.7951 6.82483 1.87679 7.57857 2.189C8.33232 2.50121 8.97655 3.02992 9.42981 3.70827C9.88307 4.38663 10.125 5.18415 10.125 6C10.1238 7.09364 9.68877 8.14213 8.91545 8.91545C8.14213 9.68876 7.09364 10.1238 6 10.125ZM4.5 6C4.5 6.31482 4.59906 6.62167 4.78314 6.87707C4.96722 7.13246 5.22699 7.32347 5.52566 7.42303C5.82433 7.52258 6.14675 7.52564 6.44725 7.43177C6.74776 7.3379 7.01111 7.15186 7.2 6.9C7.25974 6.82044 7.34863 6.76786 7.44713 6.75384C7.54564 6.73982 7.64567 6.7655 7.72524 6.82523C7.8048 6.88497 7.85738 6.97387 7.8714 7.07237C7.88542 7.17087 7.85974 7.2709 7.8 7.35047C7.51659 7.72814 7.12155 8.00708 6.67081 8.14779C6.22008 8.28849 5.7365 8.28382 5.28856 8.13444C4.84063 7.98507 4.45104 7.69855 4.17497 7.31548C3.89891 6.9324 3.75035 6.47219 3.75035 6C3.75035 5.52781 3.89891 5.0676 4.17497 4.68452C4.45104 4.30145 4.84063 4.01493 5.28856 3.86556C5.7365 3.71618 6.22008 3.71151 6.67081 3.85221C7.12155 3.99292 7.51659 4.27186 7.8 4.64953C7.82958 4.68893 7.85111 4.73376 7.86336 4.78148C7.87561 4.8292 7.87834 4.87886 7.8714 4.92763C7.86446 4.97641 7.84798 5.02333 7.8229 5.06574C7.79782 5.10814 7.76463 5.14519 7.72524 5.17477C7.68584 5.20434 7.641 5.22587 7.59329 5.23812C7.54557 5.25037 7.49591 5.25311 7.44713 5.24616C7.39836 5.23922 7.35143 5.22274 7.30903 5.19766C7.26663 5.17258 7.22958 5.1394 7.2 5.1C7.01111 4.84814 6.74776 4.6621 6.44725 4.56823C6.14675 4.47436 5.82433 4.47742 5.52566 4.57698C5.22699 4.67653 4.96722 4.86754 4.78314 5.12293C4.59906 5.37833 4.5 5.68518 4.5 6Z" fill="#64748B"/>
</svg>
